<svg width="600" height="600" viewBox="0 0 600 600" fill="none" xmlns="http://www.w3.org/2000/svg">
<path d="M583.493 268.989C582.745 271.766 513.329 399.225 511.567 402.269C510.178 404.671 503.984 414.443 502.329 415.725C500.62 417.006 495.227 419.89 492.451 420.103C489.674 420.263 409.525 419.462 409.525 419.462C409.525 419.462 406.535 424.962 406.908 425.496C407.282 426.03 408.19 426.991 408.19 426.991C408.19 426.991 477.072 427.152 480.223 427.899C483.373 428.647 488.98 428.273 492.13 432.758C495.281 437.19 496.776 436.069 498.057 446.909C499.392 457.695 499.072 469.175 498.431 476.277C497.737 484.287 496.082 489.948 494.693 493.898C491.81 501.961 487.858 507.942 483.213 511.252C478.514 514.616 460.305 519.475 452.136 521.665C443.913 523.907 423.461 529.14 405.947 529.14C388.433 529.14 379.569 528.393 364.671 526.898C349.773 525.402 342.191 524.922 336.371 523.16C330.016 521.237 318.643 518.034 312.449 519.529C306.308 521.024 303.638 523.16 296.91 525.029C290.236 526.898 277.207 527.485 271.226 527.271C267.008 527.111 252.003 527.432 239.295 524.334C227.334 521.451 217.616 515.097 215.426 513.869C206.509 508.636 200.101 503.723 192.839 496.835C188.461 492.67 187.446 492.937 183.869 489.733C182.534 488.505 180.504 494.592 176.126 500.84C170.733 508.582 165.34 512.587 161.015 516.111C150.442 524.762 137.787 528.927 128.816 529.14C119.899 529.3 106.176 527.431 98.7527 523.854C92.8797 521.077 79.8507 511.199 73.3357 505.005C63.3507 495.553 46.6377 473.981 42.4727 466.345C28.7497 440.875 21.0607 422.666 19.1917 410.011C13.6917 373.648 14.8667 353.998 16.5217 338.192C18.7647 316.62 27.3607 289.227 30.8317 279.402C35.5307 266.266 46.9047 249.82 50.1087 244.533C53.3127 239.194 58.2777 232.733 60.4137 229.796C61.4817 228.301 67.3027 221.893 69.1707 219.65C69.7587 218.956 72.8017 215.752 72.8017 215.752C72.8017 215.752 78.3557 210.413 78.9427 209.932C80.4377 208.544 84.7097 204.913 87.0587 203.524C93.5207 199.733 96.8847 204.058 97.4717 206.088C97.7917 207.422 98.2727 208.223 97.6857 212.709C96.8307 219.17 96.2437 221.626 95.9767 225.471C95.8697 226.806 95.6027 229.315 95.4957 231.398C95.3887 233.48 95.4957 241.33 95.4957 242.771C95.5497 244.854 96.1897 250.834 96.5107 252.97C96.8307 255.106 97.3117 259.752 97.7387 262.261C98.2197 265.091 98.8597 269.737 99.2337 271.446C99.4477 272.353 100.462 277.159 100.569 277.693C100.889 278.814 101.423 280.577 102.598 284.261C103.025 285.596 103.933 288.052 104.467 289.067C105.482 291.149 107.671 295.314 108.365 295.314C109.486 295.314 110.447 289.814 110.661 287.678C110.768 286.771 110.821 285.596 110.661 284.101C110.287 280.737 109.486 279.295 109.059 277.159C108.792 275.771 108.098 274.436 108.045 272.14C108.045 270.858 108.312 269.861 108.846 269.15C109.379 268.455 111.409 268.562 112.21 268.883C113.224 269.31 114.025 269.47 115.947 270.858C125.986 278.12 128.602 282.873 128.602 282.873C133.622 290.081 136.772 295.528 140.243 303.964C141.471 306.955 144.194 314.163 148.199 328.581C148.306 329.061 150.495 337.711 151.51 341.556C151.937 343.158 152.952 350.153 153.165 351.488C153.379 352.823 153.859 357.415 153.966 358.109C154.233 359.925 155.675 374.289 155.675 374.289C155.675 374.289 164.165 317.794 174.204 287.091C184.242 256.388 212.703 204.486 216.601 196.102C220.552 187.719 233.848 166.307 238.654 158.617C245.435 147.831 254.032 136.297 258.464 128.021C264.979 115.9 268.556 114.031 269.09 106.769C269.678 99.5605 270.746 87.8135 274.11 83.3285C277.474 78.8965 283.454 73.2895 290.022 71.8475C295.896 70.5665 302.731 70.1385 308.711 72.9155C314.692 75.6925 316.507 77.8285 319.123 81.0315C321.74 84.2355 322.114 88.1875 325.104 91.1775C328.094 94.1675 342.992 100.094 353.404 104.953L363.817 109.759C363.817 109.759 383.093 118.463 389.608 123.375C397.511 129.356 410.7 141.424 417.748 148.846C424.85 156.268 445.675 180.083 453.844 198.345C462.068 216.553 464.15 219.971 467.621 231.825C472.16 247.203 473.441 255.213 471.359 262.742C471.359 262.955 471.199 263.222 471.092 263.596C470.504 265.519 468.155 272.834 461 277.052C459.825 277.747 457.048 279.348 453.15 279.722C450.641 279.936 448.772 279.615 446.743 279.188C441.456 278.12 437.612 276.145 436.49 275.344C432.592 272.46 428.801 268.455 426.452 266.587C425.704 266.213 413.423 257.669 408.03 255.426C402.637 253.184 395.214 248.698 389.608 247.043C384.054 245.388 375.297 241.81 372.894 241.81C370.492 241.81 365.793 239.621 361.734 239.781C357.623 239.995 354.846 240.155 352.977 242.932C351.108 245.762 349.239 246.83 350.147 250.941C351.108 255.053 351.642 260.98 354.099 266.587C357.73 274.916 359.225 279.188 362.055 284.261C371.186 300.547 376.045 302.416 385.229 316.993C394.68 331.998 399.112 345.24 401.515 352.556C403.491 358.643 406.481 367.454 407.282 377.119L408.243 388.652C408.243 388.652 407.282 389.56 409.525 390.681L411.768 391.803L445.087 395.914L482.145 398.531L485.723 396.609L559.144 262.849C559.144 262.849 559.304 262.101 560.639 261.941C561.92 261.727 561.013 261.727 561.92 261.727C562.828 261.727 583.333 262.101 584.454 263.062C585.575 263.97 584.08 266.213 583.333 268.989H583.493Z" fill="#000000"/>
</svg>
